<?xml version="1.0" encoding="utf-8"?>
<!-- Generator: Adobe Illustrator 15.1.0, SVG Export Plug-In . SVG Version: 6.00 Build 0)  -->
<!DOCTYPE svg PUBLIC "-//W3C//DTD SVG 1.1//EN" "http://www.w3.org/Graphics/SVG/1.1/DTD/svg11.dtd">
<svg version="1.1" id="Layer_1" xmlns="http://www.w3.org/2000/svg" xmlns:xlink="http://www.w3.org/1999/xlink" x="0px" y="0px"
	 width="297.333px" height="297.333px" viewBox="0 0 297.333 297.333" enable-background="new 0 0 297.333 297.333"
	 xml:space="preserve">
<rect width="297.333" height="297.333"/>
<g>
	<path fill="#FFFFFF" d="M133.854,146.854c0.711-2.767,1.78-5.238,3.207-7.419c1.425-2.179,3.29-4.169,5.596-5.973
		c2.305-1.802,5.008-3.458,8.111-4.967l33.2-15.971V85.737h-61.746v23.265H96.442V85.737c0-3.521,0.67-6.854,2.012-9.997
		c1.34-3.144,3.185-5.867,5.533-8.174c2.346-2.305,5.093-4.15,8.237-5.533c3.144-1.383,6.476-2.075,9.997-2.075h61.746
		c3.521,0,6.854,0.691,9.997,2.075c3.145,1.383,5.889,3.229,8.237,5.533c2.346,2.307,4.191,5.03,5.533,8.174
		c1.34,3.144,2.012,6.476,2.012,9.997v22.133c0,3.521-0.336,6.665-1.006,9.432c-0.672,2.767-1.72,5.262-3.144,7.482
		c-1.427,2.223-3.291,4.213-5.597,5.974c-2.307,1.76-5.052,3.438-8.236,5.03l-33.326,15.845v21.755h-25.653v-17.103
		C132.785,152.764,133.14,149.62,133.854,146.854z"/>
	<g>
		<circle fill="#FFFFFF" cx="145.337" cy="215.875" r="21.5"/>
		<circle fill="none" stroke="#000000" stroke-width="3" stroke-miterlimit="10" cx="145.337" cy="215.875" r="18.167"/>
		<rect x="132.785" y="189.372" fill="#FFFFFF" width="25.552" height="36.001"/>
	</g>
	<g>
		<circle fill="#FFFFFF" cx="109.087" cy="107.348" r="21.5"/>
		<circle fill="none" stroke="#000000" stroke-width="3" stroke-miterlimit="10" cx="109.087" cy="107.347" r="18.167"/>
		<rect x="96.535" y="83.972" fill="#FFFFFF" width="25.552" height="32.874"/>
	</g>
</g>
</svg>
