<?xml version="1.0" encoding="UTF-8" standalone="no"?>
<!-- Generator: Adobe Illustrator 15.1.0, SVG Export Plug-In . SVG Version: 6.00 Build 0)  -->

<svg
   xmlns:dc="http://purl.org/dc/elements/1.1/"
   xmlns:cc="http://creativecommons.org/ns#"
   xmlns:rdf="http://www.w3.org/1999/02/22-rdf-syntax-ns#"
   xmlns:svg="http://www.w3.org/2000/svg"
   xmlns="http://www.w3.org/2000/svg"
   xmlns:sodipodi="http://sodipodi.sourceforge.net/DTD/sodipodi-0.dtd"
   xmlns:inkscape="http://www.inkscape.org/namespaces/inkscape"
   version="1.1"
   id="Layer_1"
   x="0px"
   y="0px"
   width="297.333px"
   height="297.333px"
   viewBox="0 0 297.333 297.333"
   enable-background="new 0 0 297.333 297.333"
   xml:space="preserve"
   inkscape:version="0.48.4 r9939"
   sodipodi:docname="whatgame.svg"><metadata
   id="metadata3041"><rdf:RDF><cc:Work
       rdf:about=""><dc:format>image/svg+xml</dc:format><dc:type
         rdf:resource="http://purl.org/dc/dcmitype/StillImage" /><dc:title></dc:title></cc:Work></rdf:RDF></metadata><defs
   id="defs3039" /><sodipodi:namedview
   pagecolor="#ffffff"
   bordercolor="#666666"
   borderopacity="1"
   objecttolerance="10"
   gridtolerance="10"
   guidetolerance="10"
   inkscape:pageopacity="0"
   inkscape:pageshadow="2"
   inkscape:window-width="1920"
   inkscape:window-height="1178"
   id="namedview3037"
   showgrid="false"
   inkscape:zoom="3.2320663"
   inkscape:cx="148.6665"
   inkscape:cy="148.6665"
   inkscape:window-x="-8"
   inkscape:window-y="-8"
   inkscape:window-maximized="1"
   inkscape:current-layer="Layer_1" />

<g
   id="g3017"
   transform="translate(1.8314257e-7,-4.640994)">
	<path
   d="m 133.854,146.854 c 0.711,-2.767 1.78,-5.238 3.207,-7.419 1.425,-2.179 3.29,-4.169 5.596,-5.973 2.305,-1.802 5.008,-3.458 8.111,-4.967 l 33.2,-15.971 V 85.737 h -61.746 v 23.265 H 96.442 V 85.737 c 0,-3.521 0.67,-6.854 2.012,-9.997 1.34,-3.144 3.185,-5.867 5.533,-8.174 2.346,-2.305 5.093,-4.15 8.237,-5.533 3.144,-1.383 6.476,-2.075 9.997,-2.075 h 61.746 c 3.521,0 6.854,0.691 9.997,2.075 3.145,1.383 5.889,3.229 8.237,5.533 2.346,2.307 4.191,5.03 5.533,8.174 1.34,3.144 2.012,6.476 2.012,9.997 v 22.133 c 0,3.521 -0.336,6.665 -1.006,9.432 -0.672,2.767 -1.72,5.262 -3.144,7.482 -1.427,2.223 -3.291,4.213 -5.597,5.974 -2.307,1.76 -5.052,3.438 -8.236,5.03 l -33.326,15.845 v 21.755 h -25.653 v -17.103 c 0.001,-3.521 0.356,-6.665 1.07,-9.431 z"
   id="path3019"
   inkscape:connector-curvature="0"
   style="fill:#ffffff" />
	<g
   id="g3021">
		<circle
   cx="145.33701"
   cy="215.875"
   r="21.5"
   id="circle3023"
   d="m 166.83701,215.875 c 0,11.87412 -9.62588,21.5 -21.5,21.5 -11.87413,0 -21.5,-9.62588 -21.5,-21.5 0,-11.87412 9.62587,-21.5 21.5,-21.5 11.87412,0 21.5,9.62588 21.5,21.5 z"
   sodipodi:cx="145.33701"
   sodipodi:cy="215.875"
   sodipodi:rx="21.5"
   sodipodi:ry="21.5"
   style="fill:#ffffff" />
		<circle
   stroke-miterlimit="10"
   cx="145.33701"
   cy="215.875"
   r="18.167"
   id="circle3025"
   d="m 163.50401,215.875 c 0,10.03336 -8.13365,18.167 -18.167,18.167 -10.03336,0 -18.167,-8.13364 -18.167,-18.167 0,-10.03336 8.13364,-18.167 18.167,-18.167 10.03335,0 18.167,8.13364 18.167,18.167 z"
   sodipodi:cx="145.33701"
   sodipodi:cy="215.875"
   sodipodi:rx="18.167"
   sodipodi:ry="18.167"
   style="fill:none;stroke:#000000;stroke-width:3;stroke-miterlimit:10" />
		<rect
   x="132.785"
   y="189.37199"
   width="25.552"
   height="36.000999"
   id="rect3027"
   style="fill:#ffffff" />
	</g>
	<g
   id="g3029">
		<circle
   cx="109.087"
   cy="107.348"
   r="21.5"
   id="circle3031"
   d="m 130.587,107.348 c 0,11.87412 -9.62588,21.5 -21.5,21.5 -11.874124,0 -21.500002,-9.62588 -21.500002,-21.5 0,-11.874123 9.625878,-21.5 21.500002,-21.5 11.87412,0 21.5,9.625877 21.5,21.5 z"
   sodipodi:cx="109.087"
   sodipodi:cy="107.348"
   sodipodi:rx="21.5"
   sodipodi:ry="21.5"
   style="fill:#ffffff" />
		<circle
   stroke-miterlimit="10"
   cx="109.087"
   cy="107.347"
   r="18.167"
   id="circle3033"
   d="m 127.254,107.347 c 0,10.03336 -8.13365,18.167 -18.167,18.167 -10.033359,0 -18.167002,-8.13364 -18.167002,-18.167 0,-10.033357 8.133643,-18.167 18.167002,-18.167 10.03335,0 18.167,8.133643 18.167,18.167 z"
   sodipodi:cx="109.087"
   sodipodi:cy="107.347"
   sodipodi:rx="18.167"
   sodipodi:ry="18.167"
   style="fill:none;stroke:#000000;stroke-width:3;stroke-miterlimit:10" />
		<rect
   x="96.535004"
   y="83.972"
   width="25.552"
   height="32.874001"
   id="rect3035"
   style="fill:#ffffff" />
	</g>
</g>
</svg>